# xmcd
#
# Track frame offsets: 
#        150
#        16709
#        29804
#        38609
#        57564
#        68308
#        79822
#        92306
#        105538
#        119009
#        127245
#        137744
#        147528
#        162237
#        171580
#        182808
#        194880
#        207634
#        221283
#        235804
#
# Disc length: 3327 seconds
#
# Revision: 5
# Processed by: cddbd v1.5.2PL0 Copyright (c) Steve Scherf et al.
# Submitted via: ExactAudioCopy v1.0b1
#
DISCID=2e0cfd14
DTITLE=David Allan Coe - 20 Road Music Hits
DYEAR=1996
DGENRE=Country
TTITLE0=Drivin' My Life Away
TTITLE1=California Turn-Arounds
TTITLE2=On The Road Again
TTITLE3=Roll On 18 Wheeler
TTITLE4=Six Days On The Road
TTITLE5=Papa Loved Mama
TTITLE6=Endless Black Ribbon
TTITLE7=How Fast Them Trucks Can Go
TTITLE8=Widow Maker
TTITLE9=Willin'
TTITLE10=Movin' On
TTITLE11=Truck Driving Man
TTITLE12=Ramblin' Fever
TTITLE13=Tombstone Every Mile
TTITLE14=Give Me Forty Acres
TTITLE15=18 Wheels Hummin' Home Sweet Home
TTITLE16=Ramblin' Man
TTITLE17=White Line Fever
TTITLE18=The Devil Was To Blame
TTITLE19=In The Heart Of Dixie
EXTD=YEAR: 1996 ID3G: 2
EXTT0=
EXTT1=
EXTT2=
EXTT3=
EXTT4=
EXTT5=
EXTT6=
EXTT7=
EXTT8=
EXTT9=
EXTT10=
EXTT11=
EXTT12=
EXTT13=
EXTT14=
EXTT15=
EXTT16=
EXTT17=
EXTT18=
EXTT19=
PLAYORDER=
